<svg width="18" height="18" viewBox="0 0 18 18" fill="none" xmlns="http://www.w3.org/2000/svg">
<path fill-rule="evenodd" clip-rule="evenodd" d="M8.71494 0.75C4.29675 0.75 0.714935 4.33182 0.714935 8.75C0.714935 13.1682 4.29675 16.75 8.71494 16.75C13.1331 16.75 16.7149 13.1682 16.7149 8.75C16.7149 4.33182 13.1331 0.75 8.71494 0.75ZM12.1826 7.39727C12.2464 7.32429 12.295 7.23926 12.3255 7.14721C12.3561 7.05516 12.3678 6.95794 12.3602 6.86126C12.3526 6.76459 12.3257 6.67041 12.2812 6.58428C12.2366 6.49814 12.1753 6.42179 12.1008 6.3597C12.0263 6.29762 11.9401 6.25106 11.8474 6.22277C11.7546 6.19448 11.6571 6.18503 11.5607 6.19497C11.4642 6.2049 11.3707 6.23403 11.2857 6.28064C11.2006 6.32725 11.1258 6.3904 11.0655 6.46636L7.93821 10.2184L6.32003 8.59945C6.18286 8.46698 5.99915 8.39367 5.80846 8.39533C5.61777 8.39699 5.43536 8.47347 5.30052 8.60831C5.16568 8.74316 5.08919 8.92557 5.08754 9.11625C5.08588 9.30694 5.15918 9.49065 5.29166 9.62782L7.47348 11.8096C7.54494 11.8811 7.6305 11.9368 7.72469 11.9733C7.81889 12.0098 7.91966 12.0263 8.02059 12.0217C8.12151 12.0172 8.22037 11.9916 8.31087 11.9467C8.40137 11.9018 8.48152 11.8385 8.54621 11.7609L12.1826 7.39727Z" fill="#0046CC"/>
</svg>
